<svg height="511pt" viewBox="1 -59 511.999 511" width="511pt" xmlns="http://www.w3.org/2000/svg"><path d="m477.863281 146.628906h-102.019531l-88.582031-89.980468c3.5-5.628907 5.527343-12.261719 5.527343-19.359376 0-20.285156-16.503906-36.789062-36.789062-36.789062s-36.789062 16.503906-36.789062 36.789062c0 7.449219 2.230468 14.386719 6.054687 20.1875l-89.152344 89.152344h-39.316406c-4.148437 0-7.511719 3.359375-7.511719 7.507813 0 4.148437 3.363282 7.511719 7.511719 7.511719h381.066406c10.539063 0 19.117188 8.574218 19.117188 19.113281v178.648437c0 10.539063-8.578125 19.113282-19.117188 19.113282h-23.609375c-4.148437 0-7.511718 3.363281-7.511718 7.511718 0 4.148438 3.363281 7.507813 7.511718 7.507813h23.609375c18.820313 0 34.136719-15.3125 34.136719-34.132813v-178.648437c0-18.820313-15.3125-34.132813-34.136719-34.132813zm-221.863281-131.109375c12.003906 0 21.769531 9.765625 21.769531 21.769531 0 12.003907-9.765625 21.769532-21.769531 21.769532s-21.769531-9.765625-21.769531-21.769532c0-12.003906 9.765625-21.769531 21.769531-21.769531zm-20.097656 52.558594c5.78125 3.789063 12.683594 6 20.097656 6 7.761719 0 14.964844-2.421875 20.90625-6.542969l77.859375 79.09375h-197.410156zm0 0"/><path d="m424.214844 378.523438h-390.078125c-10.542969 0-19.117188-8.574219-19.117188-19.113282v-178.648437c0-10.539063 8.574219-19.113281 19.117188-19.113281h29.207031c4.148438 0 7.511719-3.363282 7.511719-7.511719 0-4.148438-3.363281-7.507813-7.511719-7.507813h-29.207031c-18.824219 0-34.136719 15.3125-34.136719 34.132813v178.648437c0 18.820313 15.3125 34.132813 34.136719 34.132813h390.078125c4.148437 0 7.507812-3.359375 7.507812-7.507813 0-4.148437-3.359375-7.511718-7.507812-7.511718zm0 0"/><path d="m143.757812 243.148438c0-5.003907 2.5-8.710938 7.808594-8.710938h24.832032c4.808593 0 7.109374 3.40625 7.109374 6.910156 0 3.40625-2.402343 6.910156-7.109374 6.910156h-17.621094v14.617188h16.417968c4.90625 0 7.3125 3.40625 7.3125 6.910156 0 3.402344-2.503906 6.910156-7.3125 6.910156h-16.417968v15.21875h18.523437c4.804688 0 7.109375 3.40625 7.109375 6.910157 0 3.402343-2.402344 6.90625-7.109375 6.90625h-25.835937c-4.40625 0-7.707032-3.003907-7.707032-7.507813zm0 0"/><path d="m223.558594 267.582031-16.222656-22.027343c-1-1.304688-1.601563-2.804688-1.601563-4.40625 0-4.40625 3.304687-7.308594 7.609375-7.308594 2.503906 0 5.109375 1.699218 6.511719 3.703125l12.414062 17.625 12.417969-17.625c1.398438-2.003907 4.003906-3.703125 6.507812-3.703125 4.304688 0 7.609376 2.902344 7.609376 7.308594 0 1.601562-.601563 3.101562-1.601563 4.40625l-16.222656 22.027343 19.828125 26.636719c.800781 1.101562 1.703125 3.003906 1.703125 5.105469 0 4.207031-3.203125 7.007812-7.613281 7.007812-2.703126 0-4.707032-1.199219-6.207032-3.300781l-16.421875-22.832031-16.421875 22.832031c-1.5 2.101562-3.503906 3.300781-6.207031 3.300781-4.40625 0-7.609375-2.800781-7.609375-7.007812 0-2.101563.898438-4.003907 1.699219-5.105469zm0 0"/><path d="m283.433594 241.648438c0-5.007813 3.207031-7.808594 7.507812-7.808594 4.308594 0 7.511719 2.800781 7.511719 7.808594v56.875c0 5.007812-3.203125 7.8125-7.511719 7.8125-4.300781 0-7.507812-2.804688-7.507812-7.8125zm0 0"/><path d="m335.5 248.257812h-10.914062c-4.808594 0-6.808594-3.503906-6.808594-6.910156 0-3.503906 2.503906-6.910156 6.808594-6.910156h36.851562c4.304688 0 6.808594 3.40625 6.808594 6.910156 0 3.40625-2.003906 6.910156-6.808594 6.910156h-10.917969v50.265626c0 5.007812-3.203125 7.8125-7.507812 7.8125-4.304688 0-7.511719-2.804688-7.511719-7.8125zm0 0"/></svg>