<?xml version="1.0" encoding="UTF-8"?>
<svg width="42px" height="44px" viewBox="0 0 42 44" version="1.1" xmlns="http://www.w3.org/2000/svg" xmlns:xlink="http://www.w3.org/1999/xlink">
    <title>Group</title>
    <g id="Page-1" stroke="none" stroke-width="1" fill="none" fill-rule="evenodd">
        <g id="Artboard" transform="translate(-186.000000, -114.000000)" fill="#E51A2E" fill-rule="nonzero">
            <g id="Group" transform="translate(186.000000, 114.000000)">
                <path d="M37.2449868,40.3762744 L33.8454909,43.819776 L33.8454909,40.3762744 L37.2449868,40.3762744 Z M7.78147353,43.819776 L4.3819776,40.3762744 L7.78147353,40.3762744 L7.78147353,43.819776 Z M33.8473137,19.7188992 L37.2468096,19.7188992 L37.2468096,43.819776 L4.38380039,43.819776 L4.38380039,19.7188992 L7.78329632,19.7188992 L7.78329632,40.3762744 L33.8473137,40.3762744 L33.8473137,19.7188992 L33.8473137,19.7188992 Z M7.78147353,43.819776 L4.3819776,40.3762744 L7.78147353,40.3762744 L7.78147353,43.819776 Z M37.243164,40.3762744 L33.8454909,43.819776 L33.8454909,40.3762744 L37.2449868,40.3762744 L37.243164,40.3762744 Z M7.78147353,40.3762744 L33.8473137,40.3762744 L33.8473137,19.7188992 L37.2468096,19.7188992 L37.2468096,43.819776 L4.38380039,43.819776 L4.38380039,19.7188992 L7.78329632,19.7188992 L7.78329632,40.3762744 L7.78147353,40.3762744 Z" id="Shape"></path>
                <rect id="Rectangle" x="2.1909888" y="40.5332928" width="37.2468096" height="3.2864832" rx="1.0374332"></rect>
                <rect id="Rectangle" x="12.0504384" y="32.864832" width="18.6234048" height="3.2864832" rx="1.0374332"></rect>
                <path d="M12.8567514,3.45993648 L5.62903459,3.45993648 L3.46472081,14.1866525 C3.41595632,14.422071 3.3915766,14.6619213 3.39196606,14.9023755 C3.39196606,16.8614846 4.95064044,18.4499515 6.87124158,18.4499515 C9.79215581,18.4499515 12.2038197,16.1183743 12.3565948,13.1422812 L12.8567514,3.45993648 Z M2.86453295,0 L16.432416,0 L15.7431093,13.3248636 C15.4957592,18.1377356 11.5963569,21.909888 6.87124158,21.909888 C3.07732683,21.909888 0,18.7731224 0,14.9023755 C0,14.4276612 0.0472875281,13.952947 0.141862584,13.4891877 L2.86453295,0 Z" id="Shape"></path>
                <path d="M16.6154459,13.4563229 C16.6114192,13.5390328 16.6095612,13.6218309 16.6098401,13.7046349 C16.6098401,16.3246924 18.7365293,18.4517773 21.3609522,18.4517773 C21.4445326,18.4517773 21.5281129,18.4481257 21.6098401,18.444474 C24.2305441,18.3057114 26.2439018,16.0709028 26.1046013,13.4544971 L25.5789737,3.45993648 L17.1447881,3.45993648 L16.6173032,13.4544971 L16.6154459,13.4563229 Z M13.8572944,0 L28.8683247,0 L29.566685,13.2737405 C29.8062819,17.7981324 26.3256248,21.6597501 21.7937127,21.8989331 C21.6495845,21.9063803 21.5052793,21.9098922 21.3609522,21.9098922 C16.8234681,21.9098922 13.1459328,18.2363301 13.1459328,13.7046349 C13.1459328,13.5603948 13.1496475,13.4161548 13.1570768,13.2737405 L13.8554371,0 L13.8572944,0 Z" id="Shape"></path>
                <path d="M29.2556389,13.091157 C29.4096736,16.0964631 31.8343611,18.44995 34.7718937,18.44995 C35.0129127,18.44995 35.2539317,18.4243885 35.4895142,18.3732654 C37.3669255,17.9697583 38.5702084,16.0818565 38.1733425,14.159264 L35.9733644,3.4599362 L28.7609156,3.4599362 L29.2556389,13.091157 Z M25.1963712,0 L38.7151822,0 L41.4805583,13.4471927 C42.2597927,17.2394288 39.8894704,20.9604578 36.1853886,21.7601686 C35.7207655,21.8600502 35.246975,21.9102342 34.7718937,21.909888 C30.0366854,21.909888 26.1278282,18.1139984 25.8795604,13.2737394 L25.1981834,0 L25.1963712,0 Z" id="Shape"></path>
            </g>
        </g>
    </g>
</svg>