<?xml version="1.0" encoding="UTF-8"?>
<svg width="115px" height="61px" viewBox="0 0 115 61" version="1.1" xmlns="http://www.w3.org/2000/svg" xmlns:xlink="http://www.w3.org/1999/xlink">
    <title>ifood-logo</title>
    <g id="Page-1" stroke="none" stroke-width="1" fill="none" fill-rule="evenodd">
        <g id="Artboard" transform="translate(-46.000000, -37.000000)" fill="#EA1D2C" fill-rule="nonzero">
            <g id="ifood-logo" transform="translate(46.000000, 37.000000)">
                <path d="M0.0095814,34.7185944 L8.71570836,34.7185944 L13.5524455,10.6558272 L4.84631856,10.6558272 L0.0095814,34.7185944 Z M6.66009504,8.479296 L16.9381616,8.479296 L18.6310199,0.0150048 L8.35295328,0.0150048 L6.66009504,8.479296 Z M12.1014245,41.4900252 L20.80755,41.4900252 L26.1279612,15.492564 L32.6575584,15.492564 L33.6249036,10.6558272 L27.2162268,10.6558272 L27.458064,9.5675616 C27.8208216,7.5119472 28.5463296,5.2144956 31.81113,5.2144956 C33.745824,5.2144956 35.5596012,5.335416 37.3733784,6.1818444 L38.3407272,1.1032704 C36.2851128,0.3777588 34.108578,0.0150048 32.0529672,0.0150048 C25.0396956,0.0150048 20.2029588,4.12623 18.389183,10.6558272 L15.366222,10.6558272 L14.3988746,15.492564 L17.4218353,15.492564 L12.1014245,41.4900252 Z" id="path2"></path>
                <path d="M39.67083,35.2022688 C49.9488948,35.2022688 57.0830832,25.8915492 57.0830832,18.2736864 C57.0830832,12.5905212 51.8835888,10.1721528 46.8050148,10.1721528 C35.5596012,10.1721528 29.3927616,20.2083804 29.3927616,27.1007316 C29.3927616,32.7839004 34.7131728,35.2022688 39.67083,35.2022688 M67.2402312,35.2022688 C77.518296,35.2022688 84.6524808,25.8915492 84.6524808,18.2736864 C84.6524808,12.5905212 79.3320696,10.1721528 74.2534956,10.1721528 C63.0080856,10.1721528 56.8412424,20.2083804 56.8412424,27.1007316 C56.8412424,32.7839004 62.2825704,35.2022688 67.2402276,35.2022688 M98.7999408,34.7185944 L107.385149,34.7185944 L114.398417,0.4986792 L105.692292,0.4986792 L103.636678,10.6558272 L100.009127,10.2930696 C91.5448356,10.2930696 83.806056,21.1757292 83.806056,28.9145088 C83.806056,32.0583888 85.8616668,35.2022688 89.3683008,35.2022688 C94.3259544,35.2022688 97.832592,32.7839004 99.2836116,30.365532 L99.767286,30.365532 L98.7999408,34.7185944 Z M71.9560512,52.7354388 C65.1982333,58.3341126 56.5189241,61.0680954 47.7723636,60.3533016 C36.2851128,59.62779 28.0626588,50.8007448 26.6116356,41.4900252 L27.09531,41.4900252 C29.7555156,47.2941108 36.1641924,52.7354388 44.0238924,53.5818708 C52.0045092,54.549216 61.557066,50.9216652 66.7565568,45.964008 L60.9524712,41.4900252 L78.4856448,41.4900252 L74.6162568,60.1114644 L72.0769644,52.8563592 L71.9560512,52.7354388 Z" id="path4"></path>
            </g>
        </g>
    </g>
</svg>